<?xml version="1.0" standalone="no"?><!DOCTYPE svg PUBLIC "-//W3C//DTD SVG 1.1//EN" "http://www.w3.org/Graphics/SVG/1.1/DTD/svg11.dtd"><svg t="1652018243130" class="icon" viewBox="0 0 1024 1024" version="1.1" xmlns="http://www.w3.org/2000/svg" p-id="3779" xmlns:xlink="http://www.w3.org/1999/xlink" width="16" height="16"><defs><style type="text/css"></style></defs><path d="M394.666667 213.333333h533.333333a32 32 0 0 1 32 32 32 32 0 0 1-32 32h-533.333333a32 32 0 0 1-32-32 32 32 0 0 1 32-32z" fill="#333333" p-id="3780"></path><path d="M160 245.333333m-53.333333 0a53.333333 53.333333 0 1 0 106.666666 0 53.333333 53.333333 0 1 0-106.666666 0Z" fill="#333333" p-id="3781"></path><path d="M160 522.666667m-53.333333 0a53.333333 53.333333 0 1 0 106.666666 0 53.333333 53.333333 0 1 0-106.666666 0Z" fill="#333333" p-id="3782"></path><path d="M160 800m-53.333333 0a53.333333 53.333333 0 1 0 106.666666 0 53.333333 53.333333 0 1 0-106.666666 0Z" fill="#333333" p-id="3783"></path><path d="M394.666667 490.666667h533.333333a32 32 0 0 1 32 32 32 32 0 0 1-32 32h-533.333333a32 32 0 0 1-32-32 32 32 0 0 1 32-32zM394.666667 768h533.333333a32 32 0 0 1 32 32 32 32 0 0 1-32 32h-533.333333a32 32 0 0 1-32-32 32 32 0 0 1 32-32z" fill="#333333" p-id="3784"></path></svg>