<svg t="1625815960074" class="icon" viewBox="0 0 1024 1024" version="1.1" xmlns="http://www.w3.org/2000/svg" p-id="3972" width="512" height="512"><path d="M511.9 827.5L610.7 726l17.4-17.9h209v-472H187.3v472.1h208.4l17.4 17.9 98.8 101.4m0 77.9c-4.1 0-8.3-1.6-11.5-4.9L370.7 767.3H166.6c-21.2 0-38.4-17.6-38.4-39.3V216.4c0-21.7 17.2-39.3 38.4-39.3h691.2c21.2 0 38.4 17.6 38.4 39.3V728c0 21.7-17.2 39.3-38.4 39.3H653L523.3 900.5c-3.2 3.2-7.3 4.9-11.4 4.9z" fill="#a166ef" p-id="3973"></path><path d="M334.9 433c27.2 0 49.3 22 49.3 49.2 0 27.2-22 49.2-49.3 49.2-27.2 0-49.2-22-49.2-49.2 0-27.1 22.1-49.2 49.2-49.2zM512.2 433c27.2 0 49.2 22 49.2 49.2 0 27.2-22 49.2-49.2 49.2-27.2 0-49.2-22-49.2-49.2 0-27.1 22-49.2 49.2-49.2zM689.4 433c27.2 0 49.2 22 49.2 49.2 0 27.2-22 49.2-49.2 49.2-27.2 0-49.3-22-49.3-49.2 0.1-27.1 22.1-49.2 49.3-49.2z" fill="#a166ef" p-id="3974"></path></svg>
