<svg t="1625556024385" class="icon" viewBox="0 0 1024 1024" version="1.1" xmlns="http://www.w3.org/2000/svg" p-id="7746" width="32" height="32"><path d="M501.333333 981.333333c-106.666667 0-192-85.333333-192-192V544c0-12.8 8.533333-21.333333 21.333334-21.333333s21.333333 8.533333 21.333333 21.333333V789.333333c0 83.2 66.133333 149.333333 149.333333 149.333334s149.333333-66.133333 149.333334-149.333334c0-12.8 8.533333-21.333333 21.333333-21.333333s21.333333 8.533333 21.333333 21.333333c0 106.666667-85.333333 192-192 192zM672 526.933333c-12.8 0-21.333333-8.533333-21.333333-21.333333V256c0-83.2-66.133333-149.333333-149.333334-149.333333s-149.333333 66.133333-149.333333 149.333333c0 12.8-8.533333 21.333333-21.333333 21.333333s-21.333333-8.533333-21.333334-21.333333c0-106.666667 85.333333-192 192-192s192 85.333333 192 192v249.6c0 10.666667-8.533333 21.333333-21.333333 21.333333z" p-id="7747"></path><path d="M234.666667 714.666667c-106.666667 0-192-85.333333-192-192s85.333333-192 192-192h245.333333c12.8 0 21.333333 8.533333 21.333333 21.333333s-8.533333 21.333333-21.333333 21.333333H234.666667c-83.2 0-149.333333 66.133333-149.333334 149.333334s66.133333 149.333333 149.333334 149.333333c12.8 0 21.333333 8.533333 21.333333 21.333333s-8.533333 21.333333-21.333333 21.333334zM768 714.666667H518.4c-12.8 0-21.333333-8.533333-21.333333-21.333334s8.533333-21.333333 21.333333-21.333333H768c83.2 0 149.333333-66.133333 149.333333-149.333333s-66.133333-149.333333-149.333333-149.333334c-12.8 0-21.333333-8.533333-21.333333-21.333333s8.533333-21.333333 21.333333-21.333333c106.666667 0 192 85.333333 192 192s-85.333333 192-192 192z" p-id="7748" ></path></svg>
