<svg t="1637550791536" class="icon" viewBox="0 0 1028 1024" version="1.1" xmlns="http://www.w3.org/2000/svg" p-id="1171" width="32" height="32"><path d="M871.05065 715.950207c-29.742739 0-59.485477 8.497925-84.979253 23.369295l-169.958506-165.709543c27.618257-36.116183 44.614108-80.73029 44.614108-129.593361 0-44.614108-14.871369-87.103734-38.240664-118.970955l99.850622-104.099585c16.995851 8.497925 38.240664 16.995851 59.485477 16.995851 65.858921 0 118.970954-53.112033 118.970955-118.970955 0-65.858921-53.112033-118.970954-118.970955-118.970954-65.858921 0-118.970954 53.112033-118.970954 118.970954 0 23.369295 6.373444 42.489627 16.995851 59.485478l-99.850623 104.099585c-33.991701-29.742739-78.605809-48.863071-129.593361-48.863071-50.987552 0-99.850622 16.995851-138.091286 50.987552l-87.103735-80.730291c8.497925-16.995851 14.871369-38.240664 14.87137-59.485477 0-65.858921-53.112033-118.970954-118.970955-118.970954C55.24982 27.618257 2.137787 80.73029 2.137787 146.589212s53.112033 118.970954 118.970954 118.970954c23.369295 0 44.614108-6.373444 63.73444-16.995851l93.477179 84.979253c-23.369295 33.991701-36.116183 72.232365-36.116183 114.721992 0 53.112033 21.244813 101.975104 53.112033 138.091286l-63.73444 65.858922C208.212476 637.344398 180.594219 628.846473 150.85148 628.846473c-84.979253 0-150.838174 65.858921-150.838174 150.838174 0 84.979253 65.858921 150.838174 150.838174 150.838175s150.838174-65.858921 150.838174-150.838175c0-29.742739-8.497925-59.485477-27.618257-84.979253l63.73444-67.983402c33.991701 21.244813 72.232365 33.991701 110.473029 33.991701 44.614108 0 87.103734-14.871369 118.970954-38.240664l174.207469 165.709544c-12.746888 23.369295-21.244813 53.112033-21.244813 84.979253 0 84.979253 65.858921 150.838174 150.838174 150.838174s150.838174-65.858921 150.838174-150.838174c0-91.352697-65.858921-157.211618-150.838174-157.211619z m-89.228216-658.589211c33.991701 0 59.485477 27.618257 59.485478 59.485477s-27.618257 59.485477-59.485478 59.485477c-33.991701 0-59.485477-27.618257-59.485477-59.485477s27.618257-59.485477 59.485477-59.485477zM61.623264 146.589212c0-33.991701 27.618257-59.485477 59.485477-59.485478 33.991701 0 59.485477 27.618257 59.485478 59.485478 0 33.991701-27.618257 59.485477-59.485478 59.485477-31.86722 0-59.485477-25.493776-59.485477-59.485477z m91.352697 720.19917c-50.987552 0-89.228216-38.240664-89.228215-89.228216 0-50.987552 38.240664-89.228216 89.228215-89.228216 14.871369 0 27.618257 2.124481 38.240664 8.497926l42.489627 38.240663c6.373444 12.746888 8.497925 27.618257 8.497925 42.489627 0 50.987552-38.240664 89.228216-89.228216 89.228216z m299.551868-269.809129c-84.979253 0-150.838174-65.858921-150.838175-150.838174s65.858921-150.838174 150.838175-150.838174c84.979253 0 150.838174 65.858921 150.838174 150.838174s-67.983402 150.838174-150.838174 150.838174zM871.05065 956.016598c-50.987552 0-89.228216-38.240664-89.228216-89.228216 0-50.987552 38.240664-89.228216 89.228216-89.228216 50.987552 0 89.228216 38.240664 89.228216 89.228216 2.124481 50.987552-38.240664 89.228216-89.228216 89.228216z m0 0" p-id="1172"></path></svg>
